<svg width="24" height="24" viewBox="0 0 24 24" fill="none" xmlns="http://www.w3.org/2000/svg">
<path d="M9.28735 20.9578C9.81634 20.7991 10.1165 20.2416 9.95783 19.7127C9.79913 19.1837 9.24164 18.8835 8.71265 19.0422L9.28735 20.9578ZM2.24254 16.0299C1.70674 15.8959 1.16381 16.2217 1.02986 16.7575C0.895909 17.2933 1.22167 17.8362 1.75746 17.9701L2.24254 16.0299ZM15 23C15 23.5523 15.4477 24 16 24C16.5523 24 17 23.5523 17 23H15ZM16 19.13L15.0031 19.0516C15.001 19.0777 15 19.1038 15 19.13H16ZM15.06 16.52L14.9492 15.5262C14.57 15.5684 14.2479 15.8228 14.1189 16.1818C13.9899 16.5409 14.0764 16.9421 14.342 17.2161L15.06 16.52ZM21.5 9.52H22.5V9.51981L21.5 9.52ZM20 5.77L19.0631 5.42036C18.9293 5.77889 19.0119 6.18235 19.2757 6.45952L20 5.77ZM19.91 2L20.8291 1.60605C20.712 1.3328 20.4794 1.12582 20.1944 1.04128L19.91 2ZM16 3.48L15.7384 4.44518C16.0178 4.52091 16.3163 4.47183 16.5568 4.31064L16 3.48ZM9 3.48L8.44319 4.31064C8.68366 4.47183 8.98217 4.52091 9.26158 4.44518L9 3.48ZM5.09 2L4.80563 1.04128C4.52061 1.12582 4.28799 1.3328 4.17087 1.60605L5.09 2ZM5 5.77L5.72425 6.45954C5.98813 6.18237 6.07069 5.7789 5.93688 5.42036L5 5.77ZM3.5 9.55H4.50001L4.49999 9.54468L3.5 9.55ZM9.94 16.55L10.6586 17.2454C10.9223 16.973 11.0092 16.5749 10.8831 16.2173C10.7569 15.8598 10.4395 15.6044 10.0633 15.5576L9.94 16.55ZM9 19.13H10C10 19.1066 9.99918 19.0832 9.99754 19.0598L9 19.13ZM8 23C8 23.5523 8.44771 24 9 24C9.55228 24 10 23.5523 10 23H8ZM8.71265 19.0422C7.57636 19.3831 6.82286 19.3817 6.30601 19.2607C5.80203 19.1427 5.42857 18.8894 5.08211 18.5429C4.90325 18.364 4.73545 18.1642 4.5569 17.9406C4.39069 17.7324 4.18875 17.4689 3.99562 17.2422C3.60492 16.7835 3.05841 16.2338 2.24254 16.0299L1.75746 17.9701C1.94159 18.0162 2.14508 18.154 2.47313 18.5391C2.63937 18.7342 2.789 18.9317 2.99388 19.1883C3.18643 19.4295 3.40925 19.6985 3.66789 19.9571C4.19643 20.4856 4.88547 20.9823 5.85024 21.2081C6.80214 21.4308 7.92364 21.3669 9.28735 20.9578L8.71265 19.0422ZM17 23V19.13H15V23H17ZM16.9969 19.2084C17.0953 17.9576 16.6513 16.7248 15.778 15.8239L14.342 17.2161C14.8157 17.7046 15.0564 18.3732 15.0031 19.0516L16.9969 19.2084ZM15.1708 17.5138C16.797 17.3326 18.652 16.9201 20.1011 15.7016C21.5987 14.4423 22.5 12.4663 22.5 9.52H20.5C20.5 12.0337 19.7513 13.3827 18.8139 14.1709C17.828 14.9999 16.463 15.3574 14.9492 15.5262L15.1708 17.5138ZM22.5 9.51981C22.4997 7.86699 21.8639 6.27756 20.7243 5.08048L19.2757 6.45952C20.0615 7.28484 20.4998 8.38066 20.5 9.52018L22.5 9.51981ZM20.9369 6.11964C21.4827 4.65722 21.4441 3.04076 20.8291 1.60605L18.9909 2.39395C19.4032 3.35594 19.4291 4.43979 19.0631 5.42036L20.9369 6.11964ZM19.91 2C20.1944 1.04128 20.1934 1.041 20.1924 1.04071C20.1921 1.04061 20.1911 1.04033 20.1905 1.04013C20.1891 1.03975 20.1878 1.03936 20.1864 1.03896C20.1837 1.03818 20.1809 1.03739 20.178 1.03658C20.1723 1.03497 20.1662 1.03333 20.1598 1.03166C20.1471 1.02832 20.1331 1.02487 20.1178 1.0214C20.0873 1.01447 20.0519 1.00746 20.0115 1.00101C19.9305 0.98811 19.8304 0.977583 19.7105 0.974283C19.4702 0.967669 19.1553 0.990208 18.762 1.07752C17.9773 1.25174 16.8856 1.68244 15.4432 2.64936L16.5568 4.31064C17.8444 3.44756 18.7077 3.13826 19.1955 3.02998C19.4385 2.97604 19.5892 2.9717 19.6555 2.97353C19.6889 2.97445 19.7022 2.97697 19.6965 2.97605C19.6937 2.97561 19.6863 2.97433 19.6744 2.97162C19.6684 2.97027 19.6614 2.96857 19.6532 2.96644C19.6492 2.96538 19.6448 2.96421 19.6402 2.96292C19.6379 2.96228 19.6356 2.96161 19.6331 2.96091C19.6319 2.96056 19.6307 2.9602 19.6294 2.95983C19.6288 2.95965 19.6279 2.95937 19.6275 2.95928C19.6266 2.959 19.6256 2.95871 19.91 2ZM16.2616 2.51482C13.7983 1.84721 11.2017 1.84721 8.73842 2.51482L9.26158 4.44518C11.3823 3.87043 13.6177 3.87043 15.7384 4.44518L16.2616 2.51482ZM9.5568 2.64936C8.11435 1.68244 7.02274 1.25174 6.23798 1.07752C5.8447 0.990208 5.52982 0.967669 5.28952 0.974283C5.16963 0.977583 5.06945 0.98811 4.98854 1.00101C4.94814 1.00746 4.91271 1.01447 4.8822 1.0214C4.86695 1.02487 4.85294 1.02832 4.84018 1.03166C4.8338 1.03333 4.82773 1.03497 4.82197 1.03658C4.81909 1.03739 4.81629 1.03818 4.81357 1.03896C4.81221 1.03936 4.81087 1.03975 4.80954 1.04013C4.80888 1.04033 4.8079 1.04061 4.80757 1.04071C4.8066 1.041 4.80563 1.04128 5.09 2C5.37436 2.95871 5.37341 2.959 5.37245 2.95928C5.37214 2.95937 5.37119 2.95965 5.37056 2.95983C5.36931 2.9602 5.36808 2.96056 5.36686 2.96091C5.36443 2.96161 5.36206 2.96228 5.35976 2.96292C5.35516 2.96421 5.35082 2.96538 5.34676 2.96644C5.33862 2.96857 5.33158 2.97027 5.32564 2.97163C5.31374 2.97433 5.30633 2.97561 5.30353 2.97605C5.29781 2.97697 5.31115 2.97445 5.34454 2.97353C5.4108 2.9717 5.56155 2.97604 5.80452 3.02998C6.29226 3.13826 7.15565 3.44756 8.44319 4.31064L9.5568 2.64936ZM4.17087 1.60605C3.55594 3.04076 3.51735 4.65722 4.06312 6.11964L5.93688 5.42036C5.57094 4.43979 5.59681 3.35594 6.00913 2.39395L4.17087 1.60605ZM4.27575 5.08046C3.12759 6.28642 2.49116 7.89022 2.50001 9.55532L4.49999 9.54468C4.49388 8.3967 4.93266 7.29097 5.72425 6.45954L4.27575 5.08046ZM2.5 9.55C2.5 12.4795 3.40326 14.444 4.89892 15.7016C6.34442 16.9171 8.19555 17.341 9.81674 17.5424L10.0633 15.5576C8.54445 15.369 7.17558 15.0029 6.18608 14.1709C5.24674 13.381 4.5 12.0405 4.5 9.55H2.5ZM9.2214 15.8546C8.35857 16.7462 7.91542 17.9625 8.00246 19.2002L9.99754 19.0598C9.95033 18.3886 10.1907 17.729 10.6586 17.2454L9.2214 15.8546ZM8 19.13V23H10V19.13H8Z" fill="white"/>
</svg>
