<svg width="120" height="176" viewBox="0 0 120 176" fill="none" xmlns="http://www.w3.org/2000/svg">
<path d="M96.2288 175.903C93.4771 175.656 90.9801 174.95 88.4524 173.706C86.1722 172.583 83.7337 170.894 82.2695 169.423C78.404 165.538 74.7771 156.848 71.3677 143.303C70.5909 140.217 70.6454 140.459 65.0711 115.314C59.1808 88.7429 59.7745 91.3911 59.7072 91.3911C59.679 91.3911 58.9487 92.9947 58.0843 94.9547C53.2715 105.868 23.4524 173.5 23.3095 173.827L23.1397 174.216H11.5546C0.554359 174.216 -0.028811 174.21 0.000974841 174.097C0.0182356 174.032 11.8354 148.556 26.2614 117.483L52.4904 60.986L51.879 57.9313C46.344 30.2805 38.3707 17.3861 27.1346 17.9147C24.5923 18.0343 22.4947 18.545 20.3772 19.5599C16.8106 21.2693 14.0349 24.2964 12.2026 28.4749C10.9769 31.27 10.047 35.313 9.80621 38.8946C9.78229 39.2503 9.73539 39.5944 9.70198 39.6595C9.64607 39.7683 9.47173 39.7777 7.51345 39.7777C5.62907 39.7777 5.38094 39.7654 5.34437 39.67C5.29297 39.5361 5.42786 36.5895 5.56211 34.9136C6.6036 21.9119 10.6542 11.3301 16.8694 5.37445C19.8707 2.49849 23.3232 0.743773 27.1432 0.152819C28.232 -0.0156138 30.4887 -0.0521918 31.6269 0.0801439C35.5388 0.534961 38.9592 2.25756 42.1663 5.38814C44.8003 7.9592 46.9441 11.0496 49.0343 15.2883C51.0227 19.3208 52.574 23.6106 54.6043 30.6913C57.3609 40.3047 61.1897 56.0816 65.7858 76.765C66.1243 78.2884 68.3006 88.0132 70.622 98.3757C72.9435 108.738 75.0708 118.254 75.3495 119.521C78.0345 131.733 80.5405 139.758 83.54 145.748C85.2451 149.154 86.9239 151.592 88.9544 153.611C91.9745 156.614 95.3501 158.109 99.429 158.25C108.564 158.566 113.938 152.474 115.473 140.066C115.532 139.583 115.596 139.119 115.613 139.035L115.646 138.882L117.823 138.899L120 138.917L119.99 140.843C119.947 149.118 118.533 157.129 116.138 162.663C112.792 170.394 107.436 174.866 100.401 175.805C99.4399 175.933 97.1579 175.987 96.2288 175.903Z" fill="#D872E9"/>
</svg>
